<svg xmlns="http://www.w3.org/2000/svg" width="596" height="607" fill="none" viewBox="0 0 596 607"><path fill="#62B0FF" d="M184.16 280.16C169.712 265.712 169.712 242.288 184.16 227.84L341.84 70.1601C356.288 55.7123 379.712 55.7123 394.16 70.1601L551.84 227.84C566.288 242.288 566.288 265.712 551.84 280.16L394.16 437.84C379.712 452.288 356.288 452.288 341.84 437.84L184.16 280.16Z"/><path fill="#fff" d="M281.514 282.529C276.68 282.529 272.364 281.355 268.566 279.007C264.767 276.659 261.763 273.448 259.553 269.374C257.344 265.299 256.239 260.672 256.239 255.493C256.239 250.313 257.344 245.721 259.553 241.715C261.763 237.641 264.767 234.464 268.566 232.185C272.364 229.837 276.68 228.663 281.514 228.663C285.381 228.663 288.765 229.388 291.666 230.839C294.566 232.289 296.914 234.326 298.71 236.95V206.703H311.969V281.286H300.16L298.71 273.931C297.052 276.21 294.843 278.213 292.08 279.94C289.387 281.666 285.865 282.529 281.514 282.529ZM284.311 270.927C288.593 270.927 292.08 269.512 294.773 266.68C297.536 263.78 298.917 260.085 298.917 255.596C298.917 251.107 297.536 247.447 294.773 244.616C292.08 241.715 288.593 240.265 284.311 240.265C280.098 240.265 276.611 241.681 273.849 244.512C271.086 247.344 269.705 251.004 269.705 255.493C269.705 259.982 271.086 263.676 273.849 266.577C276.611 269.477 280.098 270.927 284.311 270.927Z"/><path fill="#fff" d="M350.436 282.529C345.257 282.529 340.664 281.424 336.659 279.214C332.653 277.005 329.511 273.897 327.232 269.892C324.953 265.886 323.814 261.259 323.814 256.011C323.814 250.693 324.919 245.963 327.129 241.819C329.408 237.676 332.515 234.464 336.452 232.185C340.457 229.837 345.153 228.663 350.54 228.663C355.581 228.663 360.035 229.768 363.903 231.978C367.77 234.188 370.774 237.227 372.915 241.094C375.125 244.892 376.23 249.139 376.23 253.835C376.23 254.595 376.195 255.389 376.126 256.218C376.126 257.047 376.091 257.91 376.022 258.808H336.97C337.246 262.813 338.627 265.955 341.113 268.234C343.668 270.513 346.741 271.653 350.332 271.653C353.026 271.653 355.27 271.066 357.066 269.892C358.93 268.648 360.312 267.06 361.209 265.126H374.676C373.709 268.372 372.086 271.342 369.807 274.035C367.597 276.659 364.835 278.731 361.52 280.25C358.274 281.77 354.58 282.529 350.436 282.529ZM350.54 239.437C347.294 239.437 344.428 240.369 341.942 242.233C339.456 244.029 337.867 246.791 337.177 250.52H362.763C362.556 247.137 361.313 244.443 359.034 242.441C356.755 240.438 353.924 239.437 350.54 239.437Z"/><path fill="#fff" d="M399.239 281.286L380.386 229.906H394.267L407.319 268.752L420.371 229.906H434.252L415.295 281.286H399.239Z"/><path fill="#fff" d="M461.929 282.529C457.371 282.529 453.365 281.804 449.913 280.354C446.46 278.835 443.697 276.763 441.625 274.139C439.554 271.514 438.311 268.476 437.896 265.023H451.259C451.674 267.026 452.778 268.752 454.574 270.202C456.439 271.583 458.821 272.274 461.722 272.274C464.622 272.274 466.728 271.687 468.041 270.513C469.422 269.339 470.112 267.992 470.112 266.473C470.112 264.263 469.145 262.778 467.212 262.019C465.278 261.19 462.585 260.396 459.132 259.636C456.922 259.153 454.678 258.566 452.399 257.875C450.12 257.185 448.013 256.321 446.08 255.286C444.215 254.181 442.696 252.799 441.522 251.142C440.348 249.416 439.761 247.309 439.761 244.823C439.761 240.265 441.556 236.432 445.147 233.325C448.808 230.217 453.918 228.663 460.479 228.663C466.556 228.663 471.39 230.079 474.981 232.91C478.641 235.742 480.816 239.644 481.507 244.616H468.973C468.213 240.818 465.347 238.919 460.375 238.919C457.889 238.919 455.955 239.402 454.574 240.369C453.262 241.336 452.606 242.544 452.606 243.994C452.606 245.514 453.607 246.722 455.61 247.62C457.613 248.518 460.271 249.346 463.586 250.106C467.177 250.935 470.458 251.867 473.427 252.903C476.466 253.87 478.883 255.355 480.678 257.357C482.474 259.291 483.372 262.088 483.372 265.748C483.441 268.925 482.612 271.791 480.885 274.346C479.159 276.901 476.673 278.904 473.427 280.354C470.181 281.804 466.349 282.529 461.929 282.529Z"/><rect width="307.035" height="307.035" x="367.5" y="36.393" stroke="#fff" stroke-width="15" rx="37.5" transform="rotate(45 367.5 36.3934)"/><rect width="143.74" height="143.74" x="234.706" y="395.929" stroke="#fff" stroke-width="10" rx="10" transform="rotate(45 234.706 395.929)"/><rect width="74.428" height="74.428" x="238.706" y="7.929" stroke="#fff" stroke-width="10" rx="10" transform="rotate(45 238.706 7.92893)"/><rect width="143.74" height="143.74" x="109.569" y="268.066" stroke="#fff" stroke-width="10" rx="10" transform="rotate(45 109.569 268.066)"/><rect width="143.74" height="143.74" x="109.569" y="28.929" stroke="#fff" stroke-width="10" rx="10" transform="rotate(45 109.569 28.9289)"/></svg>